# Blender v2.80 (sub 75) OBJ File: ''
# www.blender.org
mtllib DogEnemy.mtl
o Cube
v -6.847225 5.135562 24.956656
v -9.036133 -2.429736 25.526821
v -6.796125 2.413401 27.242678
v -8.601155 -0.552447 27.673340
v -10.526632 3.744738 24.800896
v -10.849053 -1.228039 25.333855
v -10.404314 1.903897 27.445881
v -10.635202 0.440067 27.567535
v -8.457745 1.912428 29.518312
v -8.608996 0.369986 29.591032
v -10.522335 1.708076 29.504095
v -10.500107 0.603275 29.591032
v -8.529245 1.709510 31.174494
v -8.602688 -0.554780 31.475916
v -10.484482 0.939186 31.278696
v -10.617315 0.051718 31.401289
v -8.530925 1.070590 32.630577
v -9.074841 -2.690957 33.398987
v -10.486443 0.156501 32.753952
v -10.844887 -2.084140 33.312611
v -7.866742 3.930703 23.866707
v -8.943560 -1.683823 24.531984
v -10.418419 3.906288 23.693308
v -10.673182 -1.450112 24.420204
v -10.595974 -4.477546 24.689503
v -11.296959 -4.148465 24.617901
v -10.481105 -4.447152 24.296797
v -11.285798 -4.048311 24.232634
v -8.523182 -0.301658 33.624809
v -9.051534 -2.647467 34.102909
v -10.358854 -0.652091 33.641640
v -10.724177 -2.768470 34.060791
v -10.596950 -4.489130 34.254990
v -11.286474 -4.389158 34.212593
v -10.558567 -4.654909 34.539043
v -11.263903 -4.421014 34.520908
v -8.926138 8.974460 22.842812
v -10.777771 8.482428 22.684547
v -8.884939 9.024831 22.270508
v -10.692416 8.532772 22.269239
v -10.484973 11.577890 21.340515
v -11.226483 11.532829 21.370909
v -10.472954 11.595629 21.190834
v -11.186042 11.692870 21.014492
v -5.650860 -0.506411 27.725723
v -5.177114 -2.505722 25.865532
v -5.581104 2.056221 27.848549
v -5.502408 2.090743 26.062029
v -5.722770 1.738626 29.602186
v -5.643570 0.415894 29.603006
v -5.722770 1.709510 31.174494
v -5.649242 -0.507506 31.448721
v -5.721743 1.117107 32.600937
v -5.178293 -2.507490 33.276661
v -5.097746 -2.195872 25.015816
v -5.729483 -0.234228 33.580048
v -5.202203 -2.461989 33.989952
v -3.631852 0.145508 27.852249
v -3.405621 -1.838125 26.014709
v -3.765356 0.985703 27.946367
v -3.691992 0.439599 26.402874
v -3.736541 1.493691 29.602186
v -3.748660 0.649183 29.603006
v -3.764478 0.985703 31.246428
v -3.632833 0.145508 31.342352
v -3.763304 0.265797 32.688633
v -3.404315 -1.838515 33.152843
v -3.527485 -2.468118 25.290707
v -3.892972 -0.480268 33.529007
v -3.525521 -2.468605 33.873791
v -3.655627 -4.070640 25.171431
v -3.694774 -4.219880 24.900557
v -3.693405 -4.220529 34.259571
v -3.654571 -4.071290 33.992290
v -2.963741 -3.929969 25.252838
v -2.986077 -3.956405 24.949026
v -2.987018 -3.956405 34.222015
v -2.964159 -3.929969 33.923077
v -5.476396 7.255507 23.258108
v -5.150951 9.726242 21.979753
v -5.150951 9.754192 22.130842
v -3.958281 8.184603 22.747070
v -3.588441 9.876831 21.925785
v -3.588441 9.876831 22.050161
v -4.021390 11.397238 21.375126
v -4.021390 11.397238 21.489267
v -2.723077 11.495358 21.094166
v -2.723077 11.495358 21.434551
v -3.875267 3.887007 24.099371
v -5.502304 3.888888 24.086775
v -3.814587 4.005264 24.719805
v -5.490280 4.412171 24.800804
vt 0.375000 0.000000
vt 0.625000 0.000000
vt 0.625000 0.250000
vt 0.375000 0.250000
vt 0.375000 0.250000
vt 0.625000 0.250000
vt 0.625000 0.500000
vt 0.375000 0.500000
vt 0.625000 0.500000
vt 0.625000 0.500000
vt 0.625000 0.500000
vt 0.625000 0.500000
vt 0.375000 0.500000
vt 0.125000 0.500000
vt 0.125000 0.500000
vt 0.375000 0.500000
vt 0.375000 0.750000
vt 0.125000 0.750000
vt 0.625000 0.750000
vt 0.375000 0.750000
vt 0.375000 0.750000
vt 0.625000 0.750000
vt 0.375000 0.250000
vt 0.375000 0.250000
vt 0.375000 0.250000
vt 0.375000 0.250000
vt 0.625000 0.250000
vt 0.625000 0.500000
vt 0.375000 0.500000
vt 0.375000 0.500000
vt 0.375000 0.500000
vt 0.125000 0.500000
vt 0.375000 0.500000
vt 0.625000 0.250000
vt 0.375000 0.500000
vt 0.125000 0.500000
vt 0.125000 0.500000
vt 0.375000 0.500000
vt 0.625000 0.250000
vt 0.375000 0.250000
vt 0.625000 0.250000
vt 0.625000 0.500000
vt 0.625000 0.500000
vt 0.875000 0.500000
vt 0.875000 0.750000
vt 0.625000 0.750000
vt 0.375000 0.750000
vt 0.125000 0.750000
vt 0.375000 0.750000
vt 0.375000 0.750000
vt 0.375000 0.500000
vt 0.375000 0.500000
vt 0.375000 0.500000
vt 0.375000 0.500000
vt 0.625000 0.250000
vt 0.375000 0.250000
vt 0.375000 0.250000
vt 0.625000 0.250000
vt 0.125000 0.750000
vt 0.125000 0.750000
vt 0.625000 0.750000
vt 0.625000 0.500000
vt 0.625000 1.000000
vt 0.375000 1.000000
vt 0.625000 0.250000
vt 0.375000 0.250000
vt 0.375000 0.750000
vt 0.375000 0.750000
vt 0.125000 0.500000
vt 0.125000 0.500000
vt 0.375000 0.500000
vt 0.625000 0.500000
vt 0.625000 0.500000
vt 0.375000 0.500000
vt 0.375000 1.000000
vt 0.375000 0.750000
vt 0.375000 0.750000
vt 0.625000 0.500000
vt 0.625000 0.500000
vt 0.625000 0.500000
vt 0.625000 0.500000
vt 0.875000 0.500000
vt 0.875000 0.750000
vt 0.375000 0.000000
vt 0.625000 0.000000
vt 0.625000 0.000000
vt 0.375000 0.000000
vt 0.375000 0.000000
vt 0.625000 0.000000
vt 0.375000 0.750000
vt 0.375000 0.750000
vt 0.875000 0.500000
vt 0.875000 0.750000
vt 0.625000 0.250000
vt 0.625000 0.500000
vt 0.375000 0.500000
vt 0.375000 0.500000
vt 0.375000 0.500000
vt 0.375000 0.500000
vt 0.625000 0.500000
vt 0.625000 0.500000
vt 0.375000 0.250000
vt 0.375000 0.250000
vt 0.375000 0.250000
vt 0.375000 0.250000
vt 0.375000 0.250000
vt 0.375000 0.250000
vt 0.375000 0.250000
vt 0.375000 0.000000
vt 0.375000 0.500000
vt 0.625000 0.500000
vt 0.625000 0.750000
vt 0.375000 0.750000
vt 0.000000 0.000000
vt 0.625000 0.750000
vt 0.375000 0.750000
vt 0.625000 0.750000
vt 0.625000 0.750000
vt 0.375000 0.750000
vt 0.625000 0.750000
vt 0.375000 0.750000
vt 0.625000 0.750000
vt 0.375000 0.750000
vt 0.625000 0.500000
vt 0.375000 0.000000
vt 0.375000 0.250000
vt 0.625000 0.750000
vt 0.625000 0.750000
vt 0.625000 0.750000
vt 0.625000 0.500000
vt 0.375000 0.500000
vt 0.375000 0.500000
vt 0.375000 0.750000
vt 0.375000 0.750000
vt 0.375000 0.750000
vt 0.375000 0.750000
vt 0.625000 0.250000
vt 0.625000 0.250000
vt 0.625000 0.500000
vt 0.625000 0.500000
vt 0.375000 0.500000
vt 0.625000 0.500000
vt 0.625000 0.500000
vt 0.375000 0.000000
vt 0.375000 0.000000
vt 0.875000 0.750000
vt 0.875000 0.750000
vt 0.000000 0.000000
vt 0.375000 0.000000
vt 0.375000 0.000000
vt 0.375000 0.000000
vt 0.375000 0.000000
vt 0.625000 0.500000
vt 0.625000 0.500000
vt 0.625000 0.500000
vt 0.625000 0.500000
vt 0.625000 0.500000
vt 0.625000 0.500000
vt 0.875000 0.750000
vt 0.875000 0.750000
vt 0.375000 0.000000
vt 0.375000 0.000000
vt 0.490096 0.230191
vt 0.625000 0.500000
vn -0.1830 0.7184 0.6712
vn -0.4292 -0.6699 0.6058
vn 0.0065 -0.6718 -0.7407
vn -0.9967 0.0814 0.0048
vn -0.9931 0.0927 0.0717
vn 0.0160 0.1906 0.9815
vn 0.0302 0.9969 0.0723
vn -0.1205 0.9867 0.1091
vn -0.2941 -0.9190 0.2626
vn -0.1740 -0.6418 -0.7468
vn -0.1886 -0.9100 -0.3692
vn -0.9985 0.0552 -0.0018
vn -0.2217 0.9388 0.2637
vn -0.9095 0.2290 0.3470
vn -0.9817 0.1720 0.0817
vn -0.3406 0.8461 0.4099
vn -0.0430 -0.7182 0.6945
vn 0.0594 -0.1328 -0.9894
vn -0.9894 0.0382 -0.1402
vn -0.9842 -0.1082 -0.1401
vn 0.8459 -0.5093 -0.1585
vn -0.4093 -0.8867 -0.2151
vn -0.9644 0.2113 -0.1587
vn 0.0806 0.0462 -0.9957
vn -0.2259 -0.2064 0.9520
vn -0.0344 0.2036 0.9784
vn -0.1843 0.6356 0.7498
vn 0.0494 -0.9968 0.0626
vn -0.8756 0.3363 0.3467
vn -0.2109 -0.9336 -0.2898
vn -0.0130 0.2447 0.9695
vn -0.0576 -0.3694 -0.9275
vn 0.7547 -0.6437 -0.1268
vn 0.8228 0.5569 0.1132
vn 0.0723 -0.2872 -0.9552
vn -0.1852 0.3938 0.9004
vn 0.0006 0.9435 0.3315
vn -0.1286 0.4052 0.9052
vn -0.9474 -0.2340 -0.2182
vn 0.1186 -0.3373 -0.9339
vn 0.1739 -0.6534 0.7367
vn -0.7826 -0.6116 -0.1158
vn 0.1943 -0.9110 0.3639
vn 0.3276 0.9439 -0.0419
vn 0.3293 0.8587 0.3926
vn 0.0130 -0.8960 -0.4439
vn -0.0131 -0.8673 -0.4976
vn 0.0888 0.9676 0.2363
vn 0.0092 -0.8993 0.4372
vn -0.0055 0.9196 0.3928
vn -0.0012 0.5867 0.8098
vn 0.5846 0.6700 0.4575
vn 0.9907 0.1355 -0.0136
vn 0.0992 -0.1400 -0.9852
vn 0.9975 0.0705 -0.0048
vn 0.9974 0.0716 0.0045
vn 0.9808 0.1785 0.0791
vn 0.9085 0.2302 0.3489
vn 0.2326 0.9590 0.1622
vn 0.0602 0.1882 0.9803
vn 0.1960 -0.9090 -0.3679
vn 0.6049 0.7908 -0.0939
vn 0.1773 0.6382 0.7491
vn 0.1383 0.2027 -0.9694
vn 0.1802 -0.6459 -0.7419
vn 0.2455 -0.9341 0.2593
vn 0.2505 -0.9320 -0.2619
vn 0.0402 0.2112 0.9766
vn 0.0294 -0.3561 0.9340
vn 0.8718 0.3466 0.3462
vn 0.0439 -0.3559 -0.9335
vn 0.8733 0.3457 -0.3433
vn -0.7156 -0.6884 -0.1186
vn 0.0236 -0.3195 -0.9473
vn -0.1910 0.9814 0.0195
vn 0.1351 0.4805 0.8665
vn 0.0037 -0.3405 -0.9402
vn 0.0423 0.3928 0.9186
vn 0.0173 0.3504 0.9364
vn -0.0754 0.9972 0.0000
vn 0.8819 -0.4715 0.0000
vn -0.8349 0.5474 -0.0577
vn -0.0777 -0.3590 -0.9301
vn 0.3343 0.4486 0.8289
vn 0.0918 0.4471 0.8898
vn 0.9950 -0.0715 -0.0697
vn 0.0745 -0.1632 -0.9838
vn 0.3342 0.4482 0.8291
vn 0.1954 0.4416 0.8757
vn 0.9954 -0.0108 -0.0953
vn 0.9369 0.1699 -0.3055
vn 0.9985 0.0552 0.0032
usemtl Material
s off
f 1/1/1 5/2/1 7/3/1 3/4/1
f 6/5/2 2/6/2 4/7/2 8/8/2
f 18/9/3 14/10/3 52/11/3 54/12/3
f 7/13/4 8/14/4 12/15/4 11/16/4
f 8/14/5 7/13/5 5/17/5 6/18/5
f 29/19/6 30/20/6 57/21/6 56/22/6
f 9/23/7 13/24/7 51/25/7 49/26/7
f 3/4/8 7/3/8 11/27/8 9/23/8
f 8/8/9 4/7/9 10/28/9 12/29/9
f 16/30/10 14/10/10 18/9/10 20/31/10
f 12/29/11 10/28/11 14/10/11 16/30/11
f 11/16/12 12/15/12 16/32/12 15/33/12
f 9/23/13 11/27/13 15/34/13 13/24/13
f 19/35/14 20/36/14 32/37/14 31/38/14
f 15/33/15 16/32/15 20/36/15 19/35/15
f 13/24/16 15/34/16 19/39/16 17/40/16
f 4/7/17 2/6/17 46/41/17 45/42/17
f 24/43/18 23/44/18 21/45/18 22/46/18
f 6/18/19 5/17/19 23/47/19 24/48/19
f 23/47/20 5/17/20 38/49/20 40/50/20
f 22/51/21 2/52/21 25/53/21 27/54/21
f 25/55/22 26/56/22 28/57/22 27/58/22
f 6/18/23 24/48/23 28/59/23 26/60/23
f 24/43/24 22/46/24 27/61/24 28/62/24
f 2/6/25 6/5/25 26/56/25 25/55/25
f 30/20/26 29/19/26 31/63/26 32/64/26
f 17/40/27 19/39/27 31/65/27 29/66/27
f 30/20/28 18/67/28 54/68/28 57/21/28
f 32/37/29 20/36/29 34/69/29 36/70/29
f 34/71/30 33/72/30 35/73/30 36/74/30
f 30/20/31 32/64/31 36/75/31 35/76/31
f 20/31/32 18/9/32 33/72/32 34/71/32
f 18/67/33 30/20/33 35/76/33 33/77/33
f 37/78/34 39/79/34 43/80/34 41/81/34
f 21/45/35 23/44/35 40/82/35 39/83/35
f 5/2/36 1/1/36 37/84/36 38/85/36
f 42/86/37 41/87/37 43/88/37 44/89/37
f 38/85/38 37/84/38 41/87/38 42/86/38
f 40/50/39 38/49/39 42/90/39 44/91/39
f 39/83/40 40/82/40 44/92/40 43/93/40
f 45/42/41 46/41/41 59/94/41 58/95/41
f 46/96/42 55/97/42 72/98/42 71/99/42
f 50/100/43 45/42/43 58/95/43 63/101/43
f 47/102/44 49/26/44 62/103/44 60/104/44
f 51/25/45 53/105/45 66/106/45 64/107/45
f 14/10/46 10/28/46 50/100/46 52/11/46
f 2/52/47 22/51/47 55/97/47 46/96/47
f 3/4/48 9/23/48 49/26/48 47/102/48
f 10/28/49 4/7/49 45/42/49 50/100/49
f 13/24/50 17/40/50 53/105/50 51/25/50
f 17/40/51 29/66/51 56/108/51 53/105/51
f 1/1/52 3/4/52 47/102/52 48/109/52
f 59/110/53 61/111/53 60/112/53 58/113/53
f 21/45/54 90/114/54 55/115/54 22/51/54
f 63/116/55 62/117/55 64/118/55 65/119/55
f 58/113/56 60/112/56 62/117/56 63/116/56
f 65/119/57 64/118/57 66/120/57 67/121/57
f 67/121/58 66/120/58 69/122/58 70/123/58
f 49/26/59 51/25/59 64/107/59 62/103/59
f 56/22/60 57/21/60 70/123/60 69/122/60
f 52/11/61 50/100/61 63/101/61 65/124/61
f 48/109/62 47/102/62 60/104/62 61/125/62
f 53/105/63 56/108/63 69/126/63 66/106/63
f 55/115/64 68/127/64 76/128/64 72/129/64
f 54/12/65 52/11/65 65/124/65 67/130/65
f 71/99/66 72/98/66 76/131/66 75/132/66
f 73/133/67 74/134/67 78/135/67 77/136/67
f 70/123/68 57/21/68 73/133/68 77/136/68
f 59/94/69 46/41/69 71/137/69 75/138/69
f 67/121/70 70/123/70 77/136/70 78/135/70
f 54/12/71 67/130/71 78/139/71 74/140/71
f 68/141/72 59/110/72 75/132/72 76/131/72
f 57/21/73 54/68/73 74/134/73 73/133/73
f 21/45/74 39/79/74 80/142/74 90/114/74
f 39/79/75 37/78/75 81/143/75 80/142/75
f 37/84/76 1/1/76 79/144/76 81/145/76
f 90/114/77 80/146/77 83/147/77 89/148/77
f 81/145/78 79/144/78 82/149/78 84/150/78
f 81/145/79 84/150/79 88/151/79 86/152/79
f 85/153/80 86/154/80 88/155/80 87/156/80
f 84/157/81 83/158/81 87/156/81 88/155/81
f 80/142/82 81/143/82 86/154/82 85/153/82
f 83/147/83 80/146/83 85/159/83 87/160/83
f 48/109/84 92/161/84 1/1/84
f 79/144/85 92/161/85 91/162/85 82/149/85
f 91/163/86 89/164/86 83/147/86 84/157/86
f 90/114/87 89/148/87 68/127/87 55/115/87
f 1/1/88 92/161/88 79/144/88
f 91/162/89 92/161/89 48/109/89 61/125/89
f 89/164/90 91/163/90 61/125/90
f 59/110/91 68/141/91 61/111/91
f 89/148/92 61/111/92 68/127/92
