# Blender v2.80 (sub 75) OBJ File: ''
# www.blender.org
mtllib Item_test.mtl
o Icosphere
v -0.036797 0.199133 -0.036797
v 0.036797 0.199133 -0.036797
v -0.036797 0.199133 0.036797
v 0.036797 0.199133 0.036797
v 0.050841 0.159016 -0.050841
v 0.063254 0.059912 -0.063254
v 0.050841 0.159016 0.050841
v 0.063254 0.059912 0.063254
v -0.050841 0.159016 -0.050841
v -0.063254 0.059912 -0.063254
v -0.050841 0.159016 0.050841
v -0.063254 0.059912 0.063254
v 0.073556 0.189752 0.000000
v 0.000000 0.047484 -0.070904
v -0.073769 0.099836 -0.073769
v 0.000000 0.105343 0.115652
v -0.115652 0.105343 0.000000
v 0.070904 0.047484 -0.000000
v 0.073769 0.099836 0.073769
v -0.048337 0.192520 -0.048337
v -0.048337 0.192520 0.048337
v 0.048337 0.192520 0.048337
v 0.048337 0.192520 -0.048337
v 0.000000 0.206490 0.025202
v -0.000000 0.160270 0.096735
v 0.096735 0.160270 0.000000
v 0.025202 0.206490 -0.000000
v -0.000000 0.206490 -0.025202
v -0.025202 0.206490 -0.000000
v -0.070904 0.047484 0.000000
v -0.096735 0.160270 -0.000000
v -0.073769 0.099836 0.073769
v 0.073769 0.099836 -0.073769
v -0.000000 0.105343 -0.115652
v -0.000000 0.047484 0.070904
v -0.000000 0.160270 -0.096735
v -0.000000 0.233504 0.000000
v -0.000000 0.189752 -0.073556
v 0.115652 0.105343 -0.000000
v -0.000000 -0.000683 0.000000
v -0.073556 0.189752 -0.000000
v -0.000000 0.189752 0.073556
vt 0.375000 0.625000
vt 0.375000 0.500000
vt 0.375000 0.500000
vt 0.375000 0.625000
vt 0.625000 0.875000
vt 0.625000 0.750000
vt 0.625000 0.750000
vt 0.625000 0.875000
vt 0.500000 0.125000
vt 0.625000 0.125000
vt 0.625000 0.250000
vt 0.500000 0.250000
vt 0.500000 0.375000
vt 0.625000 0.375000
vt 0.625000 0.500000
vt 0.500000 0.500000
vt 0.625000 0.625000
vt 0.625000 0.500000
vt 0.625000 0.500000
vt 0.625000 0.625000
vt 0.750000 0.625000
vt 0.875000 0.625000
vt 0.875000 0.750000
vt 0.750000 0.750000
vt 0.500000 0.625000
vt 0.625000 0.625000
vt 0.625000 0.750000
vt 0.500000 0.750000
vt 0.500000 0.875000
vt 0.625000 0.875000
vt 0.625000 1.000000
vt 0.500000 1.000000
vt 0.250000 0.625000
vt 0.375000 0.625000
vt 0.375000 0.750000
vt 0.250000 0.750000
vt 0.625000 0.375000
vt 0.625000 0.250000
vt 0.625000 0.250000
vt 0.625000 0.375000
vt 0.625000 0.500000
vt 0.625000 0.500000
vt 0.125000 0.500000
vt 0.250000 0.500000
vt 0.125000 0.625000
vt 0.625000 0.250000
vt 0.125000 0.750000
vt 0.375000 0.750000
vt 0.500000 0.750000
vt 0.375000 0.875000
vt 0.375000 0.500000
vt 0.375000 1.000000
vt 0.375000 0.500000
vt 0.500000 0.500000
vt 0.375000 0.625000
vt 0.625000 0.750000
vt 0.375000 0.750000
vt 0.625000 0.500000
vt 0.750000 0.500000
vt 0.625000 0.625000
vt 0.625000 0.500000
vt 0.625000 0.750000
vt 0.625000 0.750000
vt 0.875000 0.500000
vt 0.625000 0.750000
vt 0.375000 0.250000
vt 0.500000 0.250000
vt 0.375000 0.375000
vt 0.375000 0.500000
vt 0.375000 0.000000
vt 0.500000 0.000000
vt 0.375000 0.125000
vt 0.375000 0.250000
vt 0.625000 1.000000
vt 0.625000 0.000000
vt 0.625000 1.000000
vt 0.375000 0.750000
vt 0.375000 0.750000
vn 0.0000 0.6709 0.7415
vn 0.5158 0.6840 0.5158
vn 0.2535 0.9335 0.2535
vn 0.0000 0.9200 0.3918
vn -0.7415 0.6709 0.0000
vn -0.5158 0.6840 0.5158
vn -0.2535 0.9335 0.2535
vn -0.3918 0.9200 0.0000
vn 0.0000 -1.0000 0.0000
vn 0.6683 -0.7438 0.0000
vn 0.5461 -0.6352 0.5461
vn 0.0000 -0.7438 0.6683
vn 0.9999 -0.0155 0.0000
vn 0.9006 0.4346 0.0000
vn 0.6587 0.3636 0.6587
vn 0.7042 -0.0906 0.7042
vn 0.0000 0.6709 -0.7415
vn -0.5158 0.6840 -0.5158
vn -0.2535 0.9335 -0.2535
vn 0.0000 0.9200 -0.3918
vn 0.0000 1.0000 0.0000
vn 0.0000 -0.0155 -0.9999
vn 0.0000 0.4346 -0.9006
vn 0.6587 0.3636 -0.6587
vn 0.7042 -0.0906 -0.7042
vn -0.9999 -0.0155 0.0000
vn -0.9006 0.4346 0.0000
vn -0.6587 0.3636 -0.6587
vn -0.7042 -0.0906 -0.7042
vn 0.0000 -0.0155 0.9999
vn 0.0000 0.4346 0.9006
vn -0.6587 0.3636 0.6587
vn -0.7042 -0.0906 0.7042
vn 0.7415 0.6709 0.0000
vn 0.5158 0.6840 -0.5158
vn 0.2535 0.9335 -0.2535
vn 0.3918 0.9200 0.0000
vn -0.5461 -0.6352 0.5461
vn -0.6683 -0.7438 0.0000
vn -0.5461 -0.6352 -0.5461
vn 0.0000 -0.7438 -0.6683
vn 0.5461 -0.6352 -0.5461
usemtl None
s 1
f 42/1/1 22/2/2 4/3/3 24/4/4
f 41/5/5 21/6/6 3/7/7 29/8/8
f 40/9/9 18/10/10 8/11/11 35/12/12
f 39/13/13 26/14/14 7/15/15 19/16/16
f 38/17/17 20/18/18 1/19/19 28/20/20
f 37/21/21 29/22/8 3/23/7 24/24/4
f 34/25/22 36/26/23 5/27/24 33/28/25
f 17/29/26 31/30/27 9/31/28 15/32/29
f 16/33/30 25/34/31 11/35/32 32/36/33
f 13/37/34 23/38/35 2/39/36 27/40/37
f 7/15/15 26/14/14 13/37/34 22/41/2
f 22/41/2 13/37/34 27/40/37 4/42/3
f 8/43/11 19/44/16 16/33/30 35/45/12
f 26/14/14 5/46/24 23/38/35 13/37/34
f 35/45/12 16/33/30 32/36/33 12/47/38
f 12/48/38 32/49/33 17/29/26 30/50/39
f 19/44/16 7/51/15 25/34/31 16/33/30
f 30/50/39 17/29/26 15/32/29 10/52/40
f 10/53/40 15/54/29 34/25/22 14/55/41
f 32/49/33 11/56/32 31/30/27 17/29/26
f 14/55/41 34/25/22 33/28/25 6/57/42
f 2/58/36 28/59/20 37/21/21 27/60/37
f 15/54/29 9/61/28 36/26/23 34/25/22
f 27/60/37 37/21/21 24/24/4 4/62/3
f 5/27/24 36/26/23 38/17/17 23/63/35
f 28/59/20 1/64/19 29/22/8 37/21/21
f 23/63/35 38/17/17 28/20/20 2/65/36
f 6/66/42 33/67/25 39/13/13 18/68/10
f 36/26/23 9/61/28 20/18/18 38/17/17
f 18/68/10 39/13/13 19/16/16 8/69/11
f 10/70/40 14/71/41 40/9/9 30/72/39
f 33/67/25 5/46/24 26/14/14 39/13/13
f 30/72/39 40/9/9 35/12/12 12/73/38
f 9/31/28 31/30/27 41/5/5 20/74/18
f 14/71/41 6/75/42 18/10/10 40/9/9
f 20/74/18 41/5/5 29/8/8 1/76/19
f 11/35/32 25/34/31 42/1/1 21/77/6
f 31/30/27 11/56/32 21/6/6 41/5/5
f 21/77/6 42/1/1 24/4/4 3/78/7
f 25/34/31 7/51/15 22/2/2 42/1/1
