# Blender v2.80 (sub 75) OBJ File: ''
# www.blender.org
mtllib room.mtl
o Cube
v -14.472178 0.083798 14.472178
v -14.472178 18.957695 14.472178
v -14.472178 0.083798 -14.472178
v -14.472178 18.957695 -14.472178
v 14.472178 0.083798 14.472178
v 14.472178 18.957695 14.472178
v 14.472178 0.083798 -14.472178
v 14.472178 18.957695 -14.472178
vt 0.375000 0.000000
vt 0.625000 0.000000
vt 0.625000 0.250000
vt 0.375000 0.250000
vt 0.375000 0.250000
vt 0.625000 0.250000
vt 0.625000 0.500000
vt 0.375000 0.500000
vt 0.625000 0.750000
vt 0.375000 0.750000
vt 0.625000 0.750000
vt 0.625000 1.000000
vt 0.375000 1.000000
vt 0.125000 0.500000
vt 0.375000 0.500000
vt 0.375000 0.750000
vt 0.125000 0.750000
vt 0.625000 0.500000
vt 0.875000 0.500000
vt 0.875000 0.750000
vn 0.0000 1.0000 0.0000
vn 0.0000 0.0000 1.0000
vn -1.0000 0.0000 0.0000
vn 0.0000 -1.0000 0.0000
vn 1.0000 0.0000 0.0000
vn 0.0000 0.0000 -1.0000
usemtl Material
s off
f 1/1/1 5/2/1 7/3/1 3/4/1
f 4/5/2 3/6/2 7/7/2 8/8/2
f 8/8/3 7/7/3 5/9/3 6/10/3
f 6/10/4 2/11/4 4/12/4 8/13/4
f 2/14/5 1/15/5 3/16/5 4/17/5
f 6/18/6 5/19/6 1/20/6 2/11/6
o Cube.001
v 12.108378 0.055364 11.015232
v 12.108378 0.381921 11.015232
v 11.908446 0.055364 10.784975
v 11.908446 0.381921 10.784975
v 12.338636 0.055364 10.815300
v 12.338636 0.381921 10.815300
v 12.138704 0.055364 10.585043
v 12.138704 0.381921 10.585043
v 12.108378 2.233379 11.015232
v 11.908446 2.233379 10.784975
v 12.138704 2.233379 10.585042
v 12.338636 2.233379 10.815300
v 12.108378 2.418782 11.015232
v 11.908446 2.418782 10.784975
v 12.138704 2.418782 10.585042
v 12.338636 2.418782 10.815300
v 11.356639 2.233379 11.667968
v 11.156707 2.233379 11.437711
v 11.356639 2.418782 11.667968
v 11.156707 2.418782 11.437711
v 11.126381 2.233379 11.867901
v 10.926449 2.233379 11.637644
v 11.126381 2.418782 11.867901
v 10.926449 2.418782 11.637644
v 12.002357 2.233379 12.411626
v 12.002357 2.418782 12.411626
v 11.772099 2.233379 12.611559
v 11.772099 2.418782 12.611559
v 12.984355 2.233379 11.558958
v 12.754097 2.233379 11.758891
v 12.984355 2.418782 11.558958
v 12.754097 2.418782 11.758891
v 12.147253 2.233379 12.578500
v 12.147253 2.418782 12.578500
v 11.916995 2.233379 12.778433
v 11.916995 2.418782 12.778433
v 13.129251 2.233379 11.725831
v 12.898993 2.233379 11.925764
v 13.129251 2.418782 11.725831
v 12.898993 2.418782 11.925764
v 11.356639 0.109395 11.667968
v 11.156707 0.109395 11.437711
v 11.126381 0.109395 11.867901
v 10.926449 0.109395 11.637644
v 11.772099 0.087783 12.611559
v 12.002357 0.087783 12.411626
v 12.984355 0.087783 11.558958
v 12.754097 0.087783 11.758891
v 11.916995 0.087783 12.778433
v 12.147253 0.087783 12.578500
v 13.129251 0.087783 11.725831
v 12.898993 0.087783 11.925764
v 12.002357 3.559874 12.411626
v 11.772099 3.559874 12.611559
v 12.984355 3.559874 11.558958
v 12.754097 3.559874 11.758891
v 12.147253 3.559874 12.578500
v 11.916995 3.559874 12.778433
v 13.129251 3.559874 11.725831
v 12.898993 3.559874 11.925764
v 13.044081 4.429550 11.781416
v 12.842723 4.429550 11.956255
v 12.185337 4.429550 12.527063
v 11.983979 4.429550 12.701902
v 12.917371 4.429550 11.635488
v 12.716013 4.429550 11.810327
v 12.058627 4.429550 12.381135
v 11.857269 4.429550 12.555974
v 12.682131 4.875029 12.017638
v 12.603592 4.875029 12.085834
v 12.347181 4.875029 12.308475
v 12.268642 4.875029 12.376671
v 12.632708 4.875029 11.960720
v 12.554170 4.875029 12.028915
v 12.297758 4.875029 12.251556
v 12.219220 4.875029 12.319752
v 12.450062 5.037601 12.168221
vt 0.375000 0.000000
vt 0.625000 0.000000
vt 0.625000 0.250000
vt 0.375000 0.250000
vt 0.625000 0.500000
vt 0.375000 0.500000
vt 0.625000 0.750000
vt 0.375000 0.750000
vt 0.625000 1.000000
vt 0.375000 1.000000
vt 0.125000 0.500000
vt 0.125000 0.750000
vt 0.625000 0.500000
vt 0.625000 0.750000
vt 0.625000 0.500000
vt 0.625000 0.750000
vt 0.625000 0.000000
vt 0.625000 0.250000
vt 0.625000 1.000000
vt 0.875000 0.500000
vt 0.875000 0.750000
vt 0.625000 0.000000
vt 0.625000 0.250000
vt 0.625000 0.750000
vt 0.625000 0.750000
vt 0.625000 0.250000
vt 0.875000 0.750000
vt 0.875000 0.750000
vt 0.875000 0.750000
vt 0.875000 0.750000
vt 0.875000 0.750000
vt 0.875000 0.750000
vt 0.875000 0.750000
vt 0.875000 0.750000
vt 0.875000 0.500000
vt 0.875000 0.750000
vt 0.625000 0.250000
vt 0.625000 0.250000
vt 0.625000 0.000000
vt 0.625000 0.000000
vt 0.625000 0.250000
vt 0.625000 1.000000
vt 0.625000 0.000000
vt 0.625000 0.000000
vt 0.625000 1.000000
vt 0.875000 0.500000
vt 0.875000 0.750000
vt 0.875000 0.750000
vt 0.875000 0.750000
vt 0.625000 0.000000
vt 0.625000 0.000000
vt 0.875000 0.750000
vt 0.625000 0.000000
vt 0.875000 0.750000
vt 0.625000 1.000000
vt 0.625000 1.000000
vt 0.625000 1.000000
vt 0.625000 1.000000
vt 0.625000 1.000000
vt 0.625000 1.000000
vt 0.625000 0.750000
vt 0.625000 0.750000
vt 0.625000 1.000000
vt 0.625000 0.000000
vt 0.625000 0.000000
vt 0.625000 0.000000
vt 0.625000 0.000000
vt 0.625000 0.000000
vt 0.625000 0.000000
vt 0.625000 0.750000
vt 0.625000 0.750000
vt 0.875000 0.750000
vt 0.875000 0.750000
vt 0.625000 0.250000
vt 0.625000 0.250000
vt 0.625000 0.000000
vt 0.625000 0.000000
vt 0.625000 0.000000
vt 0.625000 1.000000
vt 0.625000 1.000000
vt 0.625000 1.000000
vt 0.625000 1.000000
vt 0.625000 0.750000
vt 0.875000 0.750000
vt 0.625000 0.750000
vt 0.625000 0.750000
vt 0.625000 1.000000
vt 0.625000 1.000000
vt 0.625000 1.000000
vt 0.625000 1.000000
vt 0.625000 1.000000
vt 0.625000 1.000000
vt 0.625000 1.000000
vt 0.875000 0.750000
vt 0.875000 0.750000
vt 0.625000 0.750000
vt 0.625000 0.750000
vt 0.625000 0.750000
vt 0.625000 0.000000
vt 0.625000 0.000000
vt 0.625000 1.000000
vt 0.875000 0.750000
vt 0.000000 0.000000
vt 0.625000 0.000000
vt 0.625000 0.000000
vt 0.875000 0.750000
vt 0.875000 0.750000
vt 0.625000 1.000000
vn -0.7551 0.0000 0.6556
vn -0.6556 0.0000 -0.7551
vn 0.7551 0.0000 -0.6556
vn 0.6556 0.0000 0.7551
vn 0.0000 -1.0000 0.0000
vn 0.0000 1.0000 -0.0000
vn 0.6556 0.0159 0.7550
vn -0.6556 0.0159 -0.7550
vn 0.6500 0.1312 0.7486
vn -0.6500 0.1312 -0.7486
vn 0.5444 0.6930 -0.4727
vn -0.7501 0.1151 0.6513
vn 0.7501 0.1151 -0.6513
vn 0.6555 0.0159 0.7550
vn -0.6393 0.2215 -0.7363
vn -0.3856 0.8597 0.3349
vn -0.5444 0.6930 0.4727
vn -0.6394 0.2215 -0.7363
vn 0.6380 0.2302 0.7348
vn 0.3853 0.8600 -0.3346
usemtl None
s off
f 9/21/7 10/22/7 12/23/7 11/24/7
f 11/24/8 12/23/8 16/25/8 15/26/8
f 15/26/9 16/25/9 14/27/9 13/28/9
f 13/28/10 14/27/10 10/29/10 9/30/10
f 11/31/11 15/26/11 13/28/11 9/32/11
f 14/27/9 16/25/9 19/33/9 20/34/9
f 20/34/9 19/33/9 23/35/9 24/36/9
f 12/23/7 10/22/7 17/37/7 18/38/7
f 10/29/10 14/27/10 20/34/10 17/39/10
f 16/25/8 12/23/8 18/38/8 19/33/8
f 23/35/12 22/40/12 21/41/12 24/36/12
f 18/38/11 17/37/11 25/42/11 26/43/11
f 20/34/9 24/36/9 39/44/9 37/45/9
f 19/33/8 18/38/8 22/46/8 23/35/8
f 65/47/13 68/48/13 70/49/13 71/50/13
f 61/51/14 62/52/14 76/53/14 75/54/14
f 21/41/12 22/40/12 28/55/12 27/56/12
f 22/46/8 18/38/8 26/43/8 28/57/8
f 30/58/7 29/59/7 31/60/7 32/61/7
f 33/62/9 41/63/9 58/64/9 54/65/9
f 28/57/8 26/43/8 30/58/8 32/61/8
f 27/56/12 28/55/12 32/66/12 31/67/12
f 21/41/12 27/56/12 34/68/12 40/69/12
f 29/59/11 25/42/11 33/70/11 35/71/11
f 27/56/12 31/67/12 36/72/12 34/68/12
f 31/60/7 29/59/7 35/71/7 36/73/7
f 40/69/8 34/68/8 61/51/8 64/74/8
f 24/36/12 21/41/12 40/69/12 39/44/12
f 17/39/11 20/34/11 37/45/11 38/75/11
f 17/39/11 38/75/11 33/62/11 25/42/11
f 41/76/10 42/77/10 44/78/10 43/79/10
f 46/80/10 45/81/10 47/82/10 48/83/10
f 34/68/8 36/72/8 62/52/8 61/51/8
f 36/73/7 44/84/7 66/85/7 62/86/7
f 25/42/10 29/59/10 51/87/10 49/88/10
f 36/73/7 35/71/7 43/89/7 44/84/7
f 37/45/9 39/44/9 47/82/9 45/81/9
f 37/45/9 45/81/9 59/90/9 55/91/9
f 42/92/10 41/76/10 46/80/10 48/93/10
f 38/75/11 46/80/11 41/63/11 33/62/11
f 50/94/11 49/88/11 51/87/11 52/95/11
f 53/96/11 54/97/11 58/64/11 57/98/11
f 56/99/11 55/91/11 59/90/11 60/100/11
f 26/43/9 25/42/9 49/88/9 50/94/9
f 38/75/8 37/45/8 55/91/8 56/99/8
f 30/58/8 26/43/8 50/94/8 52/95/8
f 41/76/10 43/79/10 57/101/10 58/102/10
f 46/80/7 38/75/7 56/99/7 60/100/7
f 29/59/7 30/58/7 52/95/7 51/87/7
f 43/89/7 35/71/7 53/96/7 57/98/7
f 35/71/8 33/70/8 54/97/8 53/96/8
f 45/81/10 46/80/10 60/100/10 59/90/10
f 63/103/14 64/74/14 74/104/14 73/105/14
f 39/44/8 40/69/8 64/74/8 63/103/8
f 47/82/9 39/44/9 63/103/9 67/106/9
f 44/78/10 42/77/10 65/107/10 66/108/10
f 42/92/10 48/93/10 68/48/10 65/47/10
f 48/83/10 47/82/10 67/106/10 68/109/10
f 72/110/15 71/111/15 79/112/15 80/113/15
f 75/54/16 76/53/16 84/114/16 83/115/16
f 69/116/17 73/105/17 81/117/17 77/118/17
f 62/86/18 66/85/18 72/119/18 76/120/18
f 64/74/14 61/51/14 75/54/14 74/104/14
f 67/106/19 63/103/19 73/105/19 69/116/19
f 66/108/13 65/107/13 71/111/13 72/110/13
f 68/109/20 67/106/20 69/116/20 70/121/20
f 82/122/21 83/115/21 85/123/21
f 85/123/22 84/124/22 80/125/22
f 71/50/15 70/49/15 78/126/15 79/127/15
f 76/120/23 72/119/23 80/125/23 84/124/23
f 73/105/16 74/104/16 82/122/16 81/117/16
f 70/121/15 69/116/15 77/118/15 78/128/15
f 74/104/16 75/54/16 83/115/16 82/122/16
f 84/124/24 85/123/24 83/115/24
f 82/122/21 85/123/21 81/117/21
f 78/126/25 85/123/25 79/127/25
f 77/118/25 85/123/25 78/126/25
f 80/125/25 79/127/25 85/123/25
f 81/117/26 85/123/26 77/118/26
o Cube.002
v 11.537067 0.055364 -0.872195
v 11.537067 0.381921 -0.872195
v 11.232122 0.055364 -0.872195
v 11.232122 0.381921 -0.872195
v 11.537067 0.055364 -1.177141
v 11.537067 0.381921 -1.177141
v 11.232122 0.055364 -1.177140
v 11.232122 0.381921 -1.177140
v 11.537067 2.233379 -0.872195
v 11.232122 2.233379 -0.872195
v 11.232122 2.233379 -1.177141
v 11.537067 2.233379 -1.177141
v 11.537067 2.418782 -0.872195
v 11.232122 2.418782 -0.872195
v 11.232122 2.418782 -1.177141
v 11.537067 2.418782 -1.177141
v 11.537067 2.233379 0.123383
v 11.232122 2.233379 0.123383
v 11.537067 2.418782 0.123383
v 11.232122 2.418782 0.123383
v 11.537068 2.233379 0.428329
v 11.232123 2.233379 0.428329
v 11.537068 2.418782 0.428329
v 11.232123 2.418782 0.428329
v 12.521943 2.233379 0.123383
v 12.521943 2.418782 0.123383
v 12.521943 2.233379 0.428329
v 12.521943 2.418782 0.428329
v 12.521943 2.233379 -1.177141
v 12.521943 2.233379 -0.872195
v 12.521943 2.418782 -1.177141
v 12.521943 2.418782 -0.872195
v 12.742945 2.233379 0.123383
v 12.742945 2.418782 0.123383
v 12.742945 2.233379 0.428329
v 12.742945 2.418782 0.428329
v 12.742945 2.233379 -1.177141
v 12.742945 2.233379 -0.872195
v 12.742945 2.418782 -1.177141
v 12.742945 2.418782 -0.872195
v 11.537067 0.109395 0.123383
v 11.232122 0.109395 0.123383
v 11.537068 0.109395 0.428329
v 11.232123 0.109395 0.428329
v 12.521943 0.087783 0.428329
v 12.521943 0.087783 0.123383
v 12.521943 0.087783 -1.177141
v 12.521943 0.087783 -0.872195
v 12.742945 0.087783 0.428329
v 12.742945 0.087783 0.123383
v 12.742945 0.087783 -1.177141
v 12.742945 0.087783 -0.872195
v 12.521943 3.559874 0.123383
v 12.521943 3.559874 0.428329
v 12.521943 3.559874 -1.177141
v 12.521943 3.559874 -0.872195
v 12.742945 3.559874 0.123383
v 12.742945 3.559874 0.428329
v 12.742945 3.559874 -1.177141
v 12.742945 3.559874 -0.872195
v 12.729075 4.429550 -1.076387
v 12.729075 4.429550 -0.809716
v 12.729075 4.429550 0.060904
v 12.729075 4.429550 0.327575
v 12.535812 4.429550 -1.076387
v 12.535812 4.429550 -0.809716
v 12.535812 4.429550 0.060904
v 12.535812 4.429550 0.327575
v 12.670135 4.875029 -0.648211
v 12.670135 4.875029 -0.544197
v 12.670135 4.875029 -0.204615
v 12.670135 4.875029 -0.100602
v 12.594753 4.875029 -0.648211
v 12.594753 4.875029 -0.544197
v 12.594753 4.875029 -0.204615
v 12.594753 4.875029 -0.100602
v 12.631684 5.037601 -0.374254
vt 0.375000 0.000000
vt 0.625000 0.000000
vt 0.625000 0.250000
vt 0.375000 0.250000
vt 0.625000 0.500000
vt 0.375000 0.500000
vt 0.625000 0.750000
vt 0.375000 0.750000
vt 0.625000 1.000000
vt 0.375000 1.000000
vt 0.125000 0.500000
vt 0.125000 0.750000
vt 0.625000 0.500000
vt 0.625000 0.750000
vt 0.625000 0.500000
vt 0.625000 0.750000
vt 0.625000 0.000000
vt 0.625000 0.250000
vt 0.625000 1.000000
vt 0.875000 0.500000
vt 0.875000 0.750000
vt 0.625000 0.000000
vt 0.625000 0.250000
vt 0.625000 0.750000
vt 0.625000 0.750000
vt 0.625000 0.250000
vt 0.875000 0.750000
vt 0.875000 0.750000
vt 0.875000 0.750000
vt 0.875000 0.750000
vt 0.875000 0.750000
vt 0.875000 0.750000
vt 0.875000 0.750000
vt 0.875000 0.750000
vt 0.875000 0.500000
vt 0.875000 0.750000
vt 0.625000 0.250000
vt 0.625000 0.250000
vt 0.625000 0.000000
vt 0.625000 0.000000
vt 0.625000 0.250000
vt 0.625000 1.000000
vt 0.625000 0.000000
vt 0.625000 0.000000
vt 0.625000 1.000000
vt 0.875000 0.500000
vt 0.875000 0.750000
vt 0.875000 0.750000
vt 0.875000 0.750000
vt 0.625000 0.000000
vt 0.625000 0.000000
vt 0.875000 0.750000
vt 0.625000 0.000000
vt 0.875000 0.750000
vt 0.625000 1.000000
vt 0.625000 1.000000
vt 0.625000 1.000000
vt 0.625000 1.000000
vt 0.625000 1.000000
vt 0.625000 1.000000
vt 0.625000 0.750000
vt 0.625000 0.750000
vt 0.625000 1.000000
vt 0.625000 0.000000
vt 0.625000 0.000000
vt 0.625000 0.000000
vt 0.625000 0.000000
vt 0.625000 0.000000
vt 0.625000 0.000000
vt 0.625000 0.750000
vt 0.625000 0.750000
vt 0.875000 0.750000
vt 0.875000 0.750000
vt 0.625000 0.250000
vt 0.625000 0.250000
vt 0.625000 0.000000
vt 0.625000 0.000000
vt 0.625000 0.000000
vt 0.625000 1.000000
vt 0.625000 1.000000
vt 0.625000 1.000000
vt 0.625000 1.000000
vt 0.625000 0.750000
vt 0.875000 0.750000
vt 0.625000 0.750000
vt 0.625000 0.750000
vt 0.625000 1.000000
vt 0.625000 1.000000
vt 0.625000 1.000000
vt 0.625000 1.000000
vt 0.625000 1.000000
vt 0.625000 1.000000
vt 0.625000 1.000000
vt 0.875000 0.750000
vt 0.875000 0.750000
vt 0.625000 0.750000
vt 0.625000 0.750000
vt 0.625000 0.750000
vt 0.625000 0.000000
vt 0.625000 0.000000
vt 0.625000 1.000000
vt 0.875000 0.750000
vt 0.000000 0.000000
vt 0.625000 0.000000
vt 0.625000 0.000000
vt 0.875000 0.750000
vt 0.875000 0.750000
vt 0.625000 1.000000
vn 0.0000 0.0000 1.0000
vn -1.0000 0.0000 0.0000
vn -0.0000 0.0000 -1.0000
vn 1.0000 0.0000 0.0000
vn 0.0000 -1.0000 0.0000
vn 0.0000 1.0000 0.0000
vn 0.9999 0.0159 0.0000
vn -0.9999 0.0159 0.0000
vn 0.9914 0.1312 0.0000
vn -0.9914 0.1312 0.0000
vn 0.0000 0.6930 -0.7210
vn 0.0000 0.1151 0.9934
vn 0.0000 0.1151 -0.9934
vn -0.9752 0.2215 0.0000
vn 0.0000 0.8597 0.5107
vn 0.0000 0.6930 0.7210
vn 0.9732 0.2302 0.0000
vn 0.9732 0.2301 0.0000
vn 0.0000 0.8600 -0.5103
usemtl None
s off
f 86/129/27 87/130/27 89/131/27 88/132/27
f 88/132/28 89/131/28 93/133/28 92/134/28
f 92/134/29 93/133/29 91/135/29 90/136/29
f 90/136/30 91/135/30 87/137/30 86/138/30
f 88/139/31 92/134/31 90/136/31 86/140/31
f 91/135/29 93/133/29 96/141/29 97/142/29
f 97/142/29 96/141/29 100/143/29 101/144/29
f 89/131/27 87/130/27 94/145/27 95/146/27
f 87/137/30 91/135/30 97/142/30 94/147/30
f 93/133/28 89/131/28 95/146/28 96/141/28
f 100/143/32 99/148/32 98/149/32 101/144/32
f 95/146/31 94/145/31 102/150/31 103/151/31
f 97/142/29 101/144/29 116/152/29 114/153/29
f 96/141/28 95/146/28 99/154/28 100/143/28
f 142/155/33 145/156/33 147/157/33 148/158/33
f 138/159/34 139/160/34 153/161/34 152/162/34
f 98/149/32 99/148/32 105/163/32 104/164/32
f 99/154/28 95/146/28 103/151/28 105/165/28
f 107/166/27 106/167/27 108/168/27 109/169/27
f 110/170/29 118/171/29 135/172/29 131/173/29
f 105/165/28 103/151/28 107/166/28 109/169/28
f 104/164/32 105/163/32 109/174/32 108/175/32
f 98/149/32 104/164/32 111/176/32 117/177/32
f 106/167/31 102/150/31 110/178/31 112/179/31
f 104/164/32 108/175/32 113/180/32 111/176/32
f 108/168/27 106/167/27 112/179/27 113/181/27
f 117/177/28 111/176/28 138/159/28 141/182/28
f 101/144/32 98/149/32 117/177/32 116/152/32
f 94/147/31 97/142/31 114/153/31 115/183/31
f 94/147/31 115/183/31 110/170/31 102/150/31
f 118/184/30 119/185/30 121/186/30 120/187/30
f 123/188/30 122/189/30 124/190/30 125/191/30
f 111/176/28 113/180/28 139/160/28 138/159/28
f 113/181/27 121/192/27 143/193/27 139/194/27
f 102/150/30 106/167/30 128/195/30 126/196/30
f 113/181/27 112/179/27 120/197/27 121/192/27
f 114/153/29 116/152/29 124/190/29 122/189/29
f 114/153/29 122/189/29 136/198/29 132/199/29
f 119/200/30 118/184/30 123/188/30 125/201/30
f 115/183/31 123/188/31 118/171/31 110/170/31
f 127/202/31 126/196/31 128/195/31 129/203/31
f 130/204/31 131/205/31 135/172/31 134/206/31
f 133/207/31 132/199/31 136/198/31 137/208/31
f 103/151/29 102/150/29 126/196/29 127/202/29
f 115/183/28 114/153/28 132/199/28 133/207/28
f 107/166/28 103/151/28 127/202/28 129/203/28
f 118/184/30 120/187/30 134/209/30 135/210/30
f 123/188/27 115/183/27 133/207/27 137/208/27
f 106/167/27 107/166/27 129/203/27 128/195/27
f 120/197/27 112/179/27 130/204/27 134/206/27
f 112/179/28 110/178/28 131/205/28 130/204/28
f 122/189/30 123/188/30 137/208/30 136/198/30
f 140/211/34 141/182/34 151/212/34 150/213/34
f 116/152/28 117/177/28 141/182/28 140/211/28
f 124/190/29 116/152/29 140/211/29 144/214/29
f 121/186/30 119/185/30 142/215/30 143/216/30
f 119/200/30 125/201/30 145/156/30 142/155/30
f 125/191/30 124/190/30 144/214/30 145/217/30
f 149/218/35 148/219/35 156/220/35 157/221/35
f 152/162/36 153/161/36 161/222/36 160/223/36
f 146/224/37 150/213/37 158/225/37 154/226/37
f 139/194/38 143/193/38 149/227/38 153/228/38
f 141/182/34 138/159/34 152/162/34 151/212/34
f 144/214/39 140/211/39 150/213/39 146/224/39
f 143/216/33 142/215/33 148/219/33 149/218/33
f 145/217/33 144/214/33 146/224/33 147/229/33
f 159/230/40 160/223/40 162/231/40
f 162/231/41 161/232/41 157/233/41
f 148/158/35 147/157/35 155/234/35 156/235/35
f 153/228/42 149/227/42 157/233/42 161/232/42
f 150/213/36 151/212/36 159/230/36 158/225/36
f 147/229/35 146/224/35 154/226/35 155/236/35
f 151/212/36 152/162/36 160/223/36 159/230/36
f 161/232/40 162/231/40 160/223/40
f 159/230/40 162/231/40 158/225/40
f 155/234/43 162/231/43 156/235/43
f 154/226/43 162/231/43 155/234/43
f 157/233/44 156/235/44 162/231/44
f 158/225/45 162/231/45 154/226/45
o Cube.003
v 8.857510 2.690963 1.173999
v 8.857510 2.906408 1.173999
v 8.857510 2.690963 -1.173999
v 8.857510 2.906408 -1.173999
v 11.205507 2.690963 1.173999
v 11.205507 2.906408 1.173999
v 11.205507 2.690963 -1.173999
v 11.205507 2.906408 -1.173999
v 8.557624 2.690963 -1.173999
v 8.557620 2.690963 1.173999
v 8.557620 2.906408 1.173999
v 8.557620 2.906409 -1.173999
v 11.505397 2.906408 -1.173999
v 11.505397 2.690963 -1.173999
v 11.505393 2.690963 1.173999
v 11.505397 2.906409 1.173999
v 8.857510 2.690963 1.495733
v 8.857510 2.906409 1.495738
v 8.857510 2.906408 -1.495738
v 8.857510 2.690963 -1.495738
v 11.205507 2.690963 -1.495733
v 11.205507 2.906409 -1.495738
v 11.205507 2.906408 1.495738
v 11.205507 2.690963 1.495738
v 8.557624 2.690963 -1.495738
v 8.557624 2.906409 -1.495738
v 11.505397 2.690963 -1.495733
v 11.505397 2.906409 -1.495733
v 11.505393 2.690963 1.495738
v 11.505393 2.906409 1.495738
v 8.557620 2.690963 1.495733
v 8.557620 2.906409 1.495733
v 8.557624 0.067742 -1.173999
v 8.557624 0.067742 -1.495738
v 8.857510 0.067742 -1.495738
v 11.205507 0.067742 1.173999
v 11.505393 0.067742 1.173999
v 11.205507 0.067742 -1.173999
v 11.505397 0.067742 -1.173999
v 8.857510 0.067742 -1.173999
v 8.557620 0.067742 1.173999
v 8.857510 0.067742 1.173999
v 11.205507 0.067742 1.495738
v 8.857510 0.067742 1.495733
v 11.205507 0.067742 -1.495733
v 11.505397 0.067742 -1.495733
v 11.505393 0.067742 1.495738
v 8.557620 0.067742 1.495733
vt 0.375000 0.750000
vt 0.375000 0.500000
vt 0.375000 0.500000
vt 0.375000 0.750000
vt 0.875000 0.500000
vt 0.625000 0.500000
vt 0.625000 0.500000
vt 0.875000 0.500000
vt 0.125000 0.500000
vt 0.125000 0.750000
vt 0.875000 0.750000
vt 0.625000 0.750000
vt 0.375000 0.000000
vt 0.625000 0.000000
vt 0.625000 0.250000
vt 0.375000 0.250000
vt 0.625000 0.500000
vt 0.625000 0.750000
vt 0.125000 0.750000
vt 0.125000 0.750000
vt 0.125000 0.750000
vt 0.875000 0.500000
vt 0.875000 0.750000
vt 0.125000 0.750000
vt 0.125000 0.500000
vt 0.375000 0.250000
vt 0.625000 0.250000
vt 0.375000 0.500000
vt 0.375000 0.750000
vt 0.625000 0.750000
vt 0.625000 1.000000
vt 0.375000 1.000000
vt 0.000000 0.000000
vt 0.000000 0.000000
vt 0.125000 0.500000
vt 0.875000 0.750000
vt 0.000000 0.000000
vt 0.000000 0.000000
vt 0.000000 0.000000
vt 0.000000 0.000000
vt 0.000000 0.000000
vt 0.000000 0.000000
vt 0.125000 0.750000
vt 0.375000 0.000000
vt 0.000000 0.000000
vt 0.125000 0.500000
vt 0.125000 0.500000
vt 0.125000 0.500000
vt 0.000000 0.000000
vt 0.375000 1.000000
vt 0.375000 0.750000
vt 0.000000 0.000000
vt 0.375000 0.750000
vt 0.375000 0.750000
vt 0.375000 0.500000
vt 0.375000 0.500000
vt 0.375000 0.500000
vt 0.000000 0.000000
vt 0.375000 0.250000
vt 0.375000 0.250000
vn 0.0000 -1.0000 -0.0000
vn -0.0000 1.0000 0.0000
vn -1.0000 -0.0000 -0.0000
vn 1.0000 -0.0000 0.0000
vn 0.0000 -0.0000 -1.0000
vn -0.0000 -0.0000 1.0000
usemtl None
s off
f 167/237/46 169/238/46 176/239/46 177/240/46
f 166/241/47 170/242/47 184/243/47 181/244/47
f 165/245/46 169/238/46 167/237/46 163/246/46
f 170/242/47 166/241/47 164/247/47 168/248/47
f 172/249/48 173/250/48 174/251/48 171/252/48
f 176/239/49 175/253/49 178/254/49 177/240/49
f 170/242/47 168/248/47 178/254/47 175/253/47
f 163/246/49 179/255/49 206/256/49 204/257/49
f 164/247/47 166/241/47 174/258/47 173/259/47
f 165/245/46 163/246/46 172/260/46 171/261/46
f 182/262/50 181/263/50 184/243/50 183/264/50
f 186/265/51 185/266/51 180/267/51 179/268/51
f 174/258/47 166/241/47 181/244/47 188/269/47
f 187/270/50 188/269/50 181/263/50 182/262/50
f 163/246/46 167/237/46 186/265/46 179/255/46
f 188/269/48 187/270/48 171/252/48 174/251/48
f 169/238/46 165/245/46 182/271/46 183/264/46
f 168/248/47 164/247/47 180/272/47 185/266/47
f 190/273/50 189/274/50 183/264/50 184/243/50
f 175/253/49 176/239/49 189/274/49 190/273/49
f 175/253/47 190/273/47 184/243/47 170/242/47
f 192/275/49 191/276/49 177/240/49 178/254/49
f 185/266/51 186/265/51 191/276/51 192/275/51
f 178/254/47 168/248/47 185/266/47 192/275/47
f 180/267/51 194/277/51 193/278/51 179/268/51
f 173/250/48 172/249/48 193/278/48 194/277/48
f 173/250/47 194/277/47 180/267/47 164/247/47
f 172/260/50 163/246/50 204/257/50 203/279/50
f 193/278/48 172/249/48 203/280/48 210/281/48
f 182/271/49 165/245/49 202/282/49 197/283/49
f 195/284/46 196/285/46 197/283/46 202/282/46
f 203/280/46 204/257/46 206/286/46 210/281/46
f 199/287/46 209/288/46 205/289/46 198/290/46
f 201/291/46 200/292/46 207/293/46 208/294/46
f 179/268/51 193/278/51 210/281/51 206/286/51
f 167/237/50 177/240/50 199/287/50 198/290/50
f 191/276/51 186/265/51 205/289/51 209/288/51
f 171/252/48 187/270/48 196/285/48 195/295/48
f 169/238/48 183/264/48 207/293/48 200/292/48
f 177/240/49 191/276/49 209/288/49 199/287/49
f 176/239/51 169/238/51 200/292/51 201/291/51
f 186/265/48 167/237/48 198/290/48 205/289/48
f 189/274/49 176/239/49 201/291/49 208/294/49
f 165/245/51 171/261/51 195/284/51 202/282/51
f 183/264/50 189/274/50 208/294/50 207/293/50
f 187/270/50 182/262/50 197/296/50 196/285/50
