# Blender v2.80 (sub 75) OBJ File: ''
# www.blender.org
mtllib Wall.mtl
o Cube.001
v 0.513920 3.000000 0.513921
v 0.513920 3.000000 -0.513920
v 0.513920 0.000000 -0.513920
v 0.513920 -0.000000 0.513920
v -0.514435 0.000000 -0.513920
v -0.513920 -0.000000 0.513920
v -0.513405 3.000000 -0.513920
v -0.513920 3.000000 0.513921
vt 1.000000 0.000000
vt 1.000000 1.000000
vt 0.000000 1.000000
vt 0.000000 0.000000
vt 0.000100 0.999900
vt 0.000100 0.500000
vt 0.999399 0.500000
vt 0.999399 0.999900
vt 1.000000 0.000000
vt 1.000000 1.000000
vt 0.000000 1.000000
vt 0.000000 0.000000
vt 0.000100 0.500000
vt 0.000100 0.000100
vt 0.999900 0.000100
vt 0.999900 0.500000
vt 0.000000 1.000000
vt 0.000000 0.000000
vt 1.000000 0.000000
vt 1.000000 1.000000
vt 0.001002 1.000000
vt 1.000000 1.000000
vt 1.000000 0.000000
vn 1.0000 -0.0000 0.0000
vn 0.0000 -1.0000 -0.0000
vn -1.0000 0.0002 0.0000
vn 0.0000 1.0000 0.0000
vn 0.0000 -0.0000 1.0000
vn 0.0000 0.0000 -1.0000
usemtl Material.001
s 1
f 1/1/1 4/2/1 3/3/1 2/4/1
f 4/5/2 6/6/2 5/7/2 3/8/2
f 6/9/3 8/10/3 7/11/3 5/12/3
f 8/13/4 1/14/4 2/15/4 7/16/4
f 4/17/5 1/18/5 8/19/5 6/20/5
f 5/12/6 7/21/6 2/22/6 3/23/6
